<svg xmlns="http://www.w3.org/2000/svg" viewBox="0 0 126.94 125.85"><defs><style>.cls-1,.cls-5{fill:#8e1913;}.cls-1{stroke:#fbbc55;stroke-miterlimit:10;stroke-width:2px;}.cls-2{font-size:18px;font-family:NovaScript-Regular, Nova Script;}.cls-2,.cls-4,.cls-6{fill:#fbbc55;}.cls-3{letter-spacing:-0.02em;}.cls-4{font-size:11px;font-family:ErasITC-Medium, Eras Medium ITC;font-weight:500;}</style></defs><g id="Réteg_2" data-name="Réteg 2"><g id="Réteg_5" data-name="Réteg 5"><path class="cls-1" d="M1.62,62.56A39.14,39.14,0,0,0,15.15,47.42c5-10.34,2.52-16.51,7.1-22.7,4.46-6,10.44-3.72,21.1-8.48A56.5,56.5,0,0,0,62.84,1.56,43.34,43.34,0,0,0,76.37,13c11.3,6,19.81,4.89,26.66,10.78,6.17,5.29,1.86,8.33,7.73,20.17a65.34,65.34,0,0,0,14.68,19.27,52.5,52.5,0,0,0-14.68,20.17c-3.53,8.89-2,12.92-6.42,17.66-5.68,6.1-12.09,3.59-22.7,8.48-4.81,2.23-11.29,6.34-17.65,14.68-7-8.5-14-12.55-19-14.68C35,105.4,29.59,107.44,24.09,102c-4.88-4.82-3.56-9.35-7.34-18.58A56.87,56.87,0,0,0,1.62,62.56Z"/><text class="cls-2" transform="translate(18.28 71.19)"><tspan class="cls-3">M</tspan><tspan x="20.2" y="0">ahadevi</tspan></text><text class="cls-4" transform="translate(30.51 90.43)">Indian Cuisine</text><path class="cls-5" d="M62.68,45.6a6.84,6.84,0,0,0,2.84,3.46,6.76,6.76,0,0,0,4.12.93c.36-2.48-.21-3.81-.83-4.57a18.46,18.46,0,0,0-3.28-2.29h0"/><path class="cls-6" d="M62.68,45.6a6.49,6.49,0,0,0,3,3,6,6,0,0,0,3.87.44h0l-.89.85a5.68,5.68,0,0,0,0-3.84,1.9,1.9,0,0,0-.22-.38,4.13,4.13,0,0,0-.36-.37c-.26-.25-.53-.49-.81-.73-.55-.48-1.12-.94-1.7-1.4.67.32,1.33.64,2,1l1,.54L69,45a3,3,0,0,1,.47.48,5.35,5.35,0,0,1,1,2.26,10.42,10.42,0,0,1,.17,2.42l0,.86h-.87a7.5,7.5,0,0,1-4.59-1.58A7,7,0,0,1,62.68,45.6Z"/><path class="cls-5" d="M46,32.08l-.78-7.26,10.65,1.34"/><path class="cls-6" d="M46,32.08a26.31,26.31,0,0,1-1.07-3.56c-.27-1.19-.49-2.39-.67-3.6l-.17-1.17,1.26.11c.89.07,1.77.19,2.66.31s1.76.3,2.64.47a29,29,0,0,1,5.22,1.52,29.1,29.1,0,0,1-5.43.18c-.89-.05-1.79-.1-2.68-.2s-1.77-.21-2.66-.36l1.09-1.06c.08,1.21.12,2.43.11,3.66A27.53,27.53,0,0,1,46,32.08Z"/><path class="cls-5" d="M53.32,48.91A30.77,30.77,0,0,1,31.2,32.32a30.63,30.63,0,0,1,9.87-1,31.25,31.25,0,0,1,16.4,6.13"/><path class="cls-6" d="M53.32,48.91a26.86,26.86,0,0,1-7-1.62,29,29,0,0,1-6.46-3.42,30,30,0,0,1-9.51-11.1l-.56-1.1,1.19-.31a30.61,30.61,0,0,1,7.06-1,29,29,0,0,1,7.07.74,28.49,28.49,0,0,1,12.4,6.37,35.71,35.71,0,0,0-12.7-4.85,31.38,31.38,0,0,0-6.7-.38,30.69,30.69,0,0,0-6.61,1.06l.63-1.41a30.74,30.74,0,0,0,3.75,5.82,32.63,32.63,0,0,0,4.92,4.91A34.74,34.74,0,0,0,53.32,48.91Z"/><path class="cls-5" d="M69.41,25.94l8-.53L79.78,25q-.12,3.4-.23,6.82h0"/><path class="cls-6" d="M69.41,25.94a17.74,17.74,0,0,1,2-.59c.66-.16,1.32-.31,2-.42,1.33-.24,2.66-.4,4-.51h-.11c.79-.14,1.59-.26,2.38-.37l1.22-.15-.1,1.14c-.09,1.13-.22,2.27-.39,3.4a26.53,26.53,0,0,1-.8,3.4A24.2,24.2,0,0,1,79,28.41c-.1-1.14-.15-2.28-.16-3.43l1.12,1c-.79.16-1.57.3-2.36.42h-.1a38.5,38.5,0,0,1-4,0c-.67,0-1.35-.09-2-.16A20.37,20.37,0,0,1,69.41,25.94Z"/><path class="cls-5" d="M57.47,34.3a16.1,16.1,0,0,1-1.39-9.88,16.29,16.29,0,0,1,6.13-9.87,16.28,16.28,0,0,1,5.72,20.73"/><path class="cls-6" d="M57.47,34.3a15,15,0,0,1-1.94-10.91A15.66,15.66,0,0,1,57.69,18a16.82,16.82,0,0,1,3.92-4.28l.54-.43.6.39A17.17,17.17,0,0,1,67.2,18a16.28,16.28,0,0,1,2.54,5.61,17.26,17.26,0,0,1,.42,3,17.07,17.07,0,0,1-.18,3,15,15,0,0,1-2,5.58,17.87,17.87,0,0,0,.28-11.23,16.57,16.57,0,0,0-6.55-8.67l1.15,0a16.43,16.43,0,0,0-3.57,3.73A15.76,15.76,0,0,0,57,23.75a16.1,16.1,0,0,0-.6,5.23A18.29,18.29,0,0,0,57.47,34.3Z"/><path class="cls-5" d="M67.14,39.23a30.91,30.91,0,0,1,5.93-4.54c9.46-5.56,19.38-4.46,23.5-3.75A32.45,32.45,0,0,1,82,46a30.54,30.54,0,0,1-10.46,3"/><path class="cls-6" d="M67.14,39.23a28.49,28.49,0,0,1,13.47-8.49A35.9,35.9,0,0,1,96.74,30l1.31.22-.58,1.19a35,35,0,0,1-4.5,7,31.7,31.7,0,0,1-6.11,5.57,28.21,28.21,0,0,1-15.37,5,34.55,34.55,0,0,0,7.66-2.29,26.5,26.5,0,0,0,3.52-1.8,31.06,31.06,0,0,0,3.27-2.19,34.32,34.32,0,0,0,9.73-12.12l.73,1.41a39.91,39.91,0,0,0-7.71-.61,36.09,36.09,0,0,0-7.68.93,31.92,31.92,0,0,0-7.3,2.65A33.67,33.67,0,0,0,67.14,39.23Z"/><path class="cls-5" d="M56.28,39.83a20.68,20.68,0,0,0-14.42-3.36,18.17,18.17,0,0,0,4.94,5.92,17.93,17.93,0,0,0,7.11,3.36"/><path class="cls-6" d="M56.28,39.83a28.24,28.24,0,0,0-7.07-2.26A23.57,23.57,0,0,0,42,37.46L42.75,36a18.13,18.13,0,0,0,2,3.1,19.93,19.93,0,0,0,2.57,2.71A21.49,21.49,0,0,0,50.42,44a25.14,25.14,0,0,0,3.49,1.72,15,15,0,0,1-7.53-2.68A17,17,0,0,1,41,36.93l-.66-1.26,1.41-.19a19,19,0,0,1,7.83.59A16.66,16.66,0,0,1,56.28,39.83Z"/><path class="cls-5" d="M60.43,36.07A14.44,14.44,0,0,1,62.6,22.25a14,14,0,0,1,3,13.63"/><path class="cls-6" d="M60.43,36.07A12.31,12.31,0,0,1,59,28.76a14.07,14.07,0,0,1,2.85-7.12l.74-1,.79.91a14.86,14.86,0,0,1,2.17,3.23,13.51,13.51,0,0,1,1.15,3.69,12.09,12.09,0,0,1-1.1,7.38,17.22,17.22,0,0,0-.43-7,14.62,14.62,0,0,0-1.31-3.16,13.69,13.69,0,0,0-2-2.76l1.53-.06a14.85,14.85,0,0,0-1.78,2.9A15.89,15.89,0,0,0,60.5,29,17.69,17.69,0,0,0,60.43,36.07Z"/><path class="cls-5" d="M70.11,40.22a15.74,15.74,0,0,1,14.41-3.36,16.61,16.61,0,0,1-12,8.5"/><path class="cls-6" d="M70.11,40.22A13.5,13.5,0,0,1,76.72,36a14.62,14.62,0,0,1,4-.59,16.34,16.34,0,0,1,4,.5l1.25.31-.63,1.13a15.87,15.87,0,0,1-5.46,5.81,14.49,14.49,0,0,1-3.61,1.64,13.08,13.08,0,0,1-3.86.57A21,21,0,0,0,79,41.88a17.83,17.83,0,0,0,4.6-5.49l.63,1.44a17,17,0,0,0-7.2-.32A19.52,19.52,0,0,0,70.11,40.22Z"/><path class="cls-5" d="M60,43a6.72,6.72,0,0,0-4.14,7.11c2.49.27,3.8-.34,4.54-1a19.09,19.09,0,0,0,2.17-3.36h0"/><path class="cls-6" d="M60,43a6.45,6.45,0,0,0-2.85,3.09,5.94,5.94,0,0,0-.3,3.88h0L56,49.1a5.63,5.63,0,0,0,3.83-.16,2.39,2.39,0,0,0,.37-.23c.12-.11.24-.24.36-.37s.47-.55.7-.84c.46-.57.9-1.16,1.34-1.75-.29.68-.6,1.35-.92,2-.16.33-.33.67-.51,1-.09.16-.19.33-.3.5a3.12,3.12,0,0,1-.46.49,5.33,5.33,0,0,1-2.23,1.08,10.36,10.36,0,0,1-2.4.25h-.86l0-.86h0a7.49,7.49,0,0,1,1.42-4.64A7,7,0,0,1,60,43Z"/><circle class="cls-1" cx="49.81" cy="29.17" r="0.74"/><circle class="cls-1" cx="76.04" cy="29.17" r="0.74"/><ellipse class="cls-1" cx="63.04" cy="40.92" rx="2.49" ry="2.21"/></g></g></svg>